<svg aria-hidden="true" style="position:absolute;width:0;height:0;overflow:hidden" xmlns="http://www.w3.org/2000/svg"><defs><symbol id="icon-Vector-2" viewBox="0 0 34 32"><path fill="#f2f4f7" style="fill:var(--color1, #f2f4f7)" d="m17.066 5.862-1.53-1.572C11.946.599 5.362 1.873 2.986 6.513c-1.116 2.182-1.367 5.333.67 9.355 1.963 3.872 6.046 8.51 13.41 13.562 7.364-5.052 11.445-9.69 13.41-13.562 2.037-4.023 1.788-7.172.67-9.355-2.377-4.64-8.96-5.916-12.55-2.225l-1.53 1.574zm0 26.138c-32.71-21.615-10.072-38.485-.375-29.561.128.118.253.24.375.365.12-.126.245-.247.375-.363 9.694-8.93 32.335 7.942-.375 29.559z"/></symbol><symbol id="icon-Vector-1" viewBox="0 0 34 32"><path fill="#3470ff" style="fill:var(--color2, #3470ff)" d="M17.066 2.803c9.468-9.732 33.139 7.298 0 29.197-33.139-21.897-9.468-38.929 0-29.197z"/></symbol></defs></svg>